<svg xmlns="http://www.w3.org/2000/svg" viewBox="0 0 109.5 124.5" role="img" aria-label="Shopify">
  <path fill="#95BF47" d="M74.9 14.8c0 0-1.3-.3-3.5-.8-.3-1-.8-2.5-1.4-4.1-2.5-7.5-8.2-11.4-14.1-10.7C52.3.1 49.8 0 47.3 0c-.3 0-.6 0-.9 0-.4 0-.7 0-1.1.1-4.1.5-7.3 2.2-9.6 5.2-2.9 3.5-4.1 8.2-3.4 12.4-8.1 2.5-13.8 4.2-13.9 4.3-4.1 1.3-4.2 1.4-4.7 5.2C14 29.6 0 111.2 0 111.2l75.6 13.1 33.9-8.4c0 0-34.6-101.1-34.6-101.1z"/>
  <path fill="#5E8E3E" d="M71.4 14c-.1 0-2.5-.8-6.7-2.1 0 0-2.7-7.5-10.5-7.5-.8 0-1.5.1-2.2.3-1.4-1.6-4.3-3.2-7.2-3.2-.2 0-.4 0-.6 0-7.8.4-11.5 9.8-11.5 9.8s-6.1 1.8-10.6 3.2c0 0-3.4 5.6-5.4 11.6l67.7 12.4V14z" opacity="0.55"/>
</svg>
